<?xml version="1.0" standalone="no"?><!DOCTYPE svg PUBLIC "-//W3C//DTD SVG 1.1//EN" "http://www.w3.org/Graphics/SVG/1.1/DTD/svg11.dtd"><svg t="1755927365227" class="icon" viewBox="0 0 1024 1024" version="1.1" xmlns="http://www.w3.org/2000/svg" p-id="861" xmlns:xlink="http://www.w3.org/1999/xlink" width="200" height="200"><path d="M959.5 512c0 321.16-126.32 447.5-447.48 447.5S64.5 833.15 64.5 512 190.84 64.51 512 64.51 959.48 190.83 959.48 512z m0 0" fill="#FDBB00" p-id="862"></path><path d="M512 512a109.21 109.21 0 1 1 109.21-109.21A109.33 109.33 0 0 1 512 512zM628.4 730.42H395.59a72.92 72.92 0 0 1-57.36-117.89C379.89 559.44 441.6 530.2 512 530.2s132.1 29.24 173.76 82.34a72.92 72.92 0 0 1-57.36 117.88z" fill="#FFFFFF" p-id="863"></path></svg>